<svg width="424" height="895" viewBox="0 0 424 895" fill="none" xmlns="http://www.w3.org/2000/svg">
<g filter="url(#filter0_b_1_162)">
<g style="mix-blend-mode:overlay">
<path fill-rule="evenodd" clip-rule="evenodd" d="M87.647 540.319L174.134 615.166C175.399 616.264 176.919 617.029 178.555 617.39C180.191 617.75 181.892 617.696 183.502 617.231C185.111 616.766 186.579 615.906 187.771 614.728C188.964 613.551 189.842 612.094 190.327 610.49L231.101 476.106L356.278 418.456C357.805 417.752 359.13 416.677 360.133 415.329C361.137 413.981 361.786 412.402 362.022 410.739C362.258 409.075 362.073 407.378 361.485 405.804C360.896 404.23 359.922 402.829 358.652 401.728L273.992 328.454C272.54 327.2 270.762 326.386 268.864 326.107C266.967 325.828 265.029 326.097 263.278 326.881L133.557 385.426C133.008 385.673 132.482 385.967 131.984 386.306C129.701 387.553 127.998 389.647 127.242 392.136L84.6286 529.743C84.0516 531.608 84.0298 533.602 84.5657 535.479C85.1017 537.357 86.1722 539.039 87.647 540.319ZM65.4689 744.656L148.539 816.549L148.533 816.551C150.026 817.843 151.866 818.666 153.825 818.918C155.783 819.17 157.772 818.839 159.543 817.966L288.022 754.672C290.733 753.169 292.834 750.765 293.958 747.876L336.919 614.244C337.524 612.368 337.563 610.355 337.032 608.456C336.5 606.557 335.422 604.857 333.93 603.567L250.409 531.275C249.141 530.178 247.62 529.417 245.983 529.058C244.346 528.7 242.645 528.757 241.036 529.224C239.426 529.691 237.959 530.553 236.768 531.732C235.577 532.911 234.7 534.369 234.216 535.973L194.421 667.673L67.7276 727.983C66.2204 728.702 64.9159 729.784 63.9319 731.133C62.9478 732.482 62.3152 734.054 62.091 735.709C61.8669 737.364 62.0583 739.048 62.648 740.61C63.2378 742.172 64.2072 743.562 65.4689 744.656Z" fill="white"/>
</g>
</g>
<defs>
<filter id="filter0_b_1_162" x="-183.7" y="-183.7" width="791.4" height="1512.4" filterUnits="userSpaceOnUse" color-interpolation-filters="sRGB">
<feFlood flood-opacity="0" result="BackgroundImageFix"/>
<feGaussianBlur in="BackgroundImageFix" stdDeviation="91.85"/>
<feComposite in2="SourceAlpha" operator="in" result="effect1_backgroundBlur_1_162"/>
<feBlend mode="normal" in="SourceGraphic" in2="effect1_backgroundBlur_1_162" result="shape"/>
</filter>
</defs>
</svg>
